# xmcd CD database file
#
# Track frame offsets:
#	150
#	23985
#	42482
#
# Disc length: 786 seconds
#
# Revision: 0
# Processed by: cddbd v1.5.1PL0 Copyright (c) Steve Scherf et al.
# Submitted via: CDex 1.50
#
DISCID=20031003
DTITLE=4D-JAM - City Of Tracks
DYEAR=1999
DGENRE=J-POP
TTITLE0=City Of Tracks
TTITLE1=woman got soul
TTITLE2=harvest noon
EXTD=YEAR: 1999
EXTT0=
EXTT1=
EXTT2=
PLAYORDER=
